<svg xmlns="http://www.w3.org/2000/svg" xmlns:xlink="http://www.w3.org/1999/xlink" width="289" zoomAndPan="magnify" viewBox="0 0 216.75 195.000001" height="260" preserveAspectRatio="xMidYMid meet" version="1.0"><defs><clipPath id="c1fe9d03be"><path d="M 1 0 L 201 0 L 201 193.257812 L 1 193.257812 Z M 1 0 " clip-rule="nonzero"/></clipPath><clipPath id="1766c593bb"><path d="M 29.066406 37.472656 L 171.585938 37.472656 L 171.585938 160.59375 L 29.066406 160.59375 Z M 29.066406 37.472656 " clip-rule="nonzero"/></clipPath></defs><g clip-path="url(#c1fe9d03be)"><path fill="#ffffff" d="M 38.757812 28.03125 C 36.464844 29.933594 34.355469 31.972656 32.425781 34.148438 C 33.351562 33.195312 34.3125 32.234375 35.304688 31.269531 C 36.179688 30.417969 37.328125 29.339844 38.757812 28.03125 M 29.421875 29.835938 C 27.863281 31.230469 26.484375 32.554688 25.28125 33.808594 C 24.074219 35.0625 23 36.273438 22.050781 37.441406 C 24.199219 35.015625 26.65625 32.480469 29.421875 29.835938 M 191.007812 75.070312 L 190.96875 75.476562 L 190.960938 75.890625 L 190.980469 76.304688 L 191.039062 76.726562 L 191.136719 77.15625 L 191.28125 77.59375 L 191.46875 78.039062 L 191.710938 78.492188 L 192.003906 78.960938 L 192.359375 79.445312 L 192.78125 79.941406 L 193.265625 80.453125 C 192.621094 78.851562 191.871094 77.058594 191.007812 75.070312 M 100.707031 0.0742188 L 99.410156 0.0820312 C 72.316406 1.253906 49.003906 11.15625 29.476562 29.789062 C 49.984375 11.804688 73 2.550781 98.527344 2.023438 C 111.824219 2.113281 123.148438 4.121094 132.503906 8.042969 C 146.492188 13.644531 157.675781 20.378906 166.050781 28.246094 C 172.144531 33.960938 176.683594 39.03125 179.667969 43.460938 C 172.167969 32.902344 160.828125 23.78125 145.648438 16.097656 C 129.144531 8.515625 113.035156 4.722656 97.316406 4.726562 C 76.058594 4.308594 56.550781 12.066406 38.792969 28.003906 C 57.125 13.367188 77.621094 6.878906 100.277344 8.53125 C 126.613281 10.917969 148.714844 20.34375 166.582031 36.816406 C 176.316406 46.015625 184.457031 58.761719 191.007812 75.0625 C 192.273438 70.921875 192.632812 68.433594 192.085938 67.597656 C 194.6875 75.394531 196.230469 83.492188 196.71875 91.882812 C 198.480469 115.613281 191.054688 137.976562 174.449219 158.972656 C 201.699219 128.195312 207.214844 93.886719 191 56.050781 C 182.171875 37.988281 170.582031 24.785156 156.222656 16.445312 C 138.269531 5.699219 119.765625 0.242188 100.707031 0.0742188 M 174.417969 159.007812 L 173.734375 159.746094 C 171.664062 161.980469 169.449219 164.238281 167.085938 166.523438 L 168.6875 165.242188 L 169.035156 164.949219 C 169.136719 164.878906 169.539062 164.492188 170.25 163.792969 C 170.839844 163.195312 171.488281 162.488281 172.191406 161.683594 L 173.277344 160.410156 L 174.417969 159.007812 M 32.390625 34.1875 L 30.703125 35.960938 C 11.535156 57.453125 2.992188 81.578125 5.074219 108.339844 C 1.992188 96.832031 2.152344 84.796875 5.558594 72.234375 C 8.84375 58.941406 14.332031 47.359375 22.019531 37.480469 C 9.292969 52.085938 2.308594 70.789062 1.066406 93.589844 C 1.027344 97.703125 1.714844 102.855469 3.125 109.046875 C 8.089844 126.671875 10.996094 136.027344 11.839844 137.109375 C 17.316406 149.578125 23.761719 159.257812 31.179688 166.15625 C 40.65625 175.023438 51.09375 181.679688 62.488281 186.121094 C 73.988281 190.898438 84.886719 193.191406 95.175781 193.003906 C 109.898438 192.683594 123.734375 190.488281 136.691406 186.414062 C 146.097656 183.058594 156.222656 176.433594 167.066406 166.542969 C 155.84375 175.484375 146.195312 181.207031 138.121094 183.703125 C 123.007812 187.859375 109.054688 189.835938 96.265625 189.636719 C 88.246094 190.195312 76.824219 187.28125 62 180.902344 C 51.171875 176.164062 42.230469 170.316406 35.175781 163.359375 C 29.539062 157.703125 25.253906 152.425781 22.324219 147.527344 C 31.054688 158.007812 43.722656 168.007812 60.328125 177.535156 C 68.308594 181.980469 76.253906 185.167969 84.167969 187.097656 C 86.203125 187.558594 87.351562 187.726562 87.617188 187.597656 C 87.761719 187.550781 87.746094 187.449219 87.574219 187.296875 C 87.925781 187.539062 88.449219 187.3125 89.148438 186.613281 C 89.734375 185.898438 90.121094 185.199219 90.300781 184.507812 C 79.820312 184.261719 63.675781 177.113281 41.867188 163.058594 C 29.421875 153.765625 20.054688 142.867188 13.765625 130.355469 C 7.8125 116.117188 6.53125 99.210938 9.917969 79.644531 C 12.40625 64.457031 19.894531 49.304688 32.390625 34.1875 " fill-opacity="1" fill-rule="nonzero"/></g><g clip-path="url(#1766c593bb)"><path fill="#ffffff" d="M 110.414062 55.121094 C 107.039062 54.796875 103.632812 54.28125 100.257812 54.214844 C 91.433594 53.988281 82.804688 55.675781 74.109375 57.003906 C 70.996094 57.492188 69.503906 58.855469 68.105469 61.546875 C 63.304688 70.761719 58.082031 79.75 53.019531 88.800781 C 52.695312 89.417969 52.273438 90.195312 52.371094 90.8125 C 52.859375 93.667969 53.539062 96.457031 54.1875 99.539062 C 55.03125 98.890625 55.679688 98.402344 56.328125 97.949219 C 59.964844 95.257812 64.472656 95.808594 66.746094 99.246094 C 68.398438 101.714844 68.203125 104.503906 66.191406 106.675781 C 62.007812 111.21875 57.789062 115.761719 53.539062 120.269531 C 51.496094 122.445312 48.023438 122.835938 45.363281 121.277344 C 42.867188 119.816406 41.699219 116.929688 42.605469 113.976562 C 42.996094 112.710938 43.644531 111.480469 44.457031 110.410156 C 45.949219 108.429688 47.667969 106.613281 49.222656 104.664062 C 49.613281 104.179688 49.90625 103.335938 49.808594 102.75 C 49.417969 100.609375 48.867188 98.5 48.316406 96.390625 C 48.21875 96.003906 47.828125 95.515625 47.441406 95.355469 C 45.980469 94.769531 44.359375 94.445312 42.996094 93.699219 C 40.074219 92.109375 37.285156 90.292969 34.429688 88.574219 C 33.617188 88.085938 32.808594 87.664062 31.929688 87.308594 C 29.726562 86.398438 29.140625 85.425781 30.015625 83.21875 C 31.023438 80.722656 32.160156 78.257812 33.359375 75.855469 C 38.191406 66.121094 43.546875 56.679688 49.582031 47.628906 C 50.585938 46.136719 51.753906 44.707031 53.019531 43.378906 C 55.03125 41.238281 56.71875 41.007812 59.054688 42.828125 C 62.203125 45.261719 65.253906 47.886719 68.171875 50.613281 C 69.597656 51.945312 70.800781 52.558594 72.941406 52.136719 C 81.441406 50.417969 90.039062 49.023438 98.734375 48.992188 C 106.035156 48.957031 113.269531 49.738281 119.695312 53.859375 C 121.285156 54.894531 122.90625 54.214844 124.042969 52.753906 C 127.578125 48.210938 131.148438 43.671875 134.878906 39.257812 C 136.371094 37.472656 137.667969 37.539062 139.453125 39.0625 C 149.703125 47.886719 159.925781 56.710938 170.144531 65.539062 C 171.574219 66.769531 171.636719 68.101562 170.273438 69.59375 C 167.613281 72.511719 164.921875 75.433594 162.195312 78.289062 C 160.898438 79.652344 159.828125 80.882812 159.503906 82.960938 C 158.757812 87.957031 157.328125 92.792969 153.957031 96.945312 C 154.929688 97.722656 155.675781 98.535156 156.582031 99.085938 C 160.28125 101.390625 160.832031 104.828125 159.925781 108.625 C 158.660156 113.945312 155.285156 117.351562 149.996094 118.746094 C 149.023438 119.007812 148.699219 119.429688 148.535156 120.5 C 147.660156 126.46875 145.261719 131.496094 139.421875 134.222656 C 138.902344 134.449219 138.542969 135.390625 138.480469 136.039062 C 138.21875 139.25 137.503906 142.300781 135.363281 144.863281 C 133.515625 147.070312 131.113281 148.433594 128.226562 148.5625 C 126.832031 148.628906 126.410156 149.210938 126.085938 150.414062 C 124.65625 155.796875 118.71875 160.40625 113.171875 160.144531 C 111.355469 160.046875 109.34375 159.300781 107.851562 158.265625 C 101.980469 154.144531 96.300781 149.796875 90.527344 145.511719 C 90.394531 145.414062 90.265625 145.351562 89.976562 145.1875 C 88.839844 146.421875 87.734375 147.71875 86.535156 148.921875 C 83.160156 152.328125 77.808594 151.417969 75.730469 147.101562 C 74.757812 145.089844 74.789062 143.144531 76.414062 141.328125 C 80.4375 136.753906 84.492188 132.210938 88.289062 127.472656 C 90.722656 124.457031 94.875 124.8125 96.949219 126.402344 C 99.609375 128.414062 100.453125 132.40625 98.539062 135.195312 C 97.4375 136.816406 95.976562 138.179688 94.679688 139.671875 C 94.289062 140.128906 93.867188 140.582031 93.347656 141.164062 C 95.035156 142.496094 96.5625 143.792969 98.183594 144.996094 C 102.433594 148.078125 106.714844 151.09375 111 154.175781 C 112.363281 155.148438 113.757812 155.277344 115.28125 154.664062 C 118.136719 153.558594 120.539062 151.96875 121.476562 148.789062 C 121.738281 147.847656 121.609375 147.167969 120.894531 146.582031 C 115.445312 142.171875 109.992188 137.792969 104.511719 133.410156 C 103.34375 132.503906 102.140625 131.691406 102.269531 129.941406 C 102.402344 128.449219 103.375 127.539062 104.800781 127.960938 C 106.066406 128.316406 107.363281 128.902344 108.402344 129.710938 C 113.042969 133.410156 117.585938 137.207031 122.160156 140.972656 C 122.613281 141.328125 123.003906 141.71875 123.457031 142.074219 C 126.960938 144.863281 131.699219 143.273438 132.867188 138.925781 C 132.964844 138.539062 133.0625 138.117188 133.125 137.726562 C 133.675781 135.226562 133.320312 133.25 130.984375 131.53125 C 125.824219 127.734375 120.894531 123.679688 115.929688 119.65625 C 115.214844 119.070312 114.40625 118.355469 114.179688 117.546875 C 113.949219 116.734375 114.082031 115.4375 114.632812 114.886719 C 115.152344 114.367188 116.382812 114.367188 117.292969 114.398438 C 117.84375 114.429688 118.363281 114.984375 118.851562 115.371094 C 124.042969 119.523438 129.234375 123.710938 134.421875 127.863281 C 137.085938 130.003906 138.1875 129.90625 140.359375 127.246094 C 142.179688 125.039062 143.507812 122.574219 143.539062 119.65625 C 143.539062 118.875 143.117188 117.902344 142.535156 117.382812 C 137.992188 113.492188 133.386719 109.695312 128.84375 105.800781 C 127.933594 105.054688 127.125 104.148438 126.476562 103.171875 C 125.824219 102.230469 125.988281 101 126.929688 100.382812 C 127.644531 99.929688 128.84375 99.667969 129.621094 99.960938 C 130.757812 100.382812 131.730469 101.257812 132.671875 102.070312 C 136.824219 105.605469 140.976562 109.175781 145.03125 112.808594 C 146.523438 114.140625 148.019531 114.527344 149.671875 113.492188 C 151.066406 112.613281 152.558594 111.738281 153.566406 110.503906 C 156 107.585938 155.609375 104.859375 152.789062 102.394531 C 141.367188 92.371094 129.980469 82.34375 118.527344 72.414062 C 117.84375 71.832031 116.644531 71.476562 115.734375 71.605469 C 110.738281 72.253906 105.742188 72.96875 100.8125 73.84375 C 99.222656 74.136719 97.695312 74.945312 96.140625 75.5625 C 91.5 77.445312 87.25 76.601562 83.355469 73.746094 C 80.726562 71.832031 80.4375 69.269531 82.773438 66.964844 C 84.945312 64.824219 87.605469 63.167969 89.8125 61.058594 C 92.765625 58.238281 96.300781 57.199219 100.257812 56.90625 C 103.667969 56.648438 107.039062 56.03125 110.445312 55.578125 C 110.414062 55.480469 110.414062 55.316406 110.414062 55.121094 Z M 56.621094 46.945312 C 47.992188 58.464844 41.664062 70.824219 35.46875 83.316406 C 39.328125 85.554688 42.929688 87.664062 46.660156 89.839844 C 52.4375 79.328125 58.113281 69.007812 63.757812 58.691406 C 64.34375 57.621094 65.542969 56.386719 65.347656 55.449219 C 65.15625 54.410156 63.695312 53.597656 62.753906 52.722656 C 60.871094 50.871094 58.894531 49.054688 56.621094 46.945312 Z M 164.984375 67.742188 C 163.882812 66.835938 162.910156 66.058594 162 65.246094 C 157.976562 61.644531 154.019531 57.976562 149.898438 54.441406 C 146.167969 51.230469 142.273438 48.148438 138.445312 45.066406 C 138.089844 44.773438 137.148438 44.644531 136.953125 44.839844 C 134.359375 47.855469 131.828125 50.9375 129.199219 54.085938 C 138.382812 61.675781 147.464844 69.203125 156.648438 76.796875 C 159.472656 73.777344 162.195312 70.824219 164.984375 67.742188 Z M 164.984375 67.742188 " fill-opacity="1" fill-rule="nonzero"/></g><path fill="#ffffff" d="M 83 116.3125 C 86.40625 116.3125 89.195312 118.777344 89.261719 122.089844 C 89.292969 123.160156 88.871094 124.488281 88.191406 125.332031 C 83.386719 131.074219 78.488281 136.722656 73.621094 142.398438 C 70.832031 145.644531 67.394531 146.195312 64.472656 143.921875 C 61.390625 141.488281 60.871094 137.371094 63.53125 134.125 C 66.9375 130.003906 70.574219 126.078125 74.109375 122.054688 C 75.082031 120.953125 76.023438 119.851562 77.03125 118.8125 C 78.878906 116.929688 80.402344 116.3125 83 116.3125 Z M 83 116.3125 " fill-opacity="1" fill-rule="nonzero"/><path fill="#ffffff" d="M 58.730469 135.132812 C 53.441406 134.773438 50.328125 129.421875 52.988281 124.714844 C 54.511719 121.992188 56.652344 119.558594 58.730469 117.1875 C 61.390625 114.140625 64.214844 111.21875 67.003906 108.265625 C 68.851562 106.320312 72.421875 105.769531 74.789062 107.035156 C 77.222656 108.332031 78.683594 111.511719 77.9375 114.203125 C 77.742188 114.886719 77.355469 115.535156 76.867188 116.085938 C 71.707031 121.992188 66.550781 127.894531 61.328125 133.734375 C 60.675781 134.417969 59.605469 134.675781 58.730469 135.132812 Z M 58.730469 135.132812 " fill-opacity="1" fill-rule="nonzero"/></svg>